PathFileType	4	(X/Y/Z)	C:/Users/opensim2020/Desktop/walking_exp_matlab/subject03_walking14_straight_01.trc																																																																																																																																											
DataRate	CameraRate	NumFrames	NumMarkers	Units	OrigDataRate	OrigDataStartFrame	OrigNumFrames																																																																																																																																							
100	100	7	47	mm	100	527	205																																																																																																																																							
Frame#	Time	LFHD			RFHD			LBHD			RBHD			C7			T10			CLAV			STRN			RBAK			LSHO			LUPA			LELB			LFRM			LWRA			LWRB			LFIN			RSHO			RUPA			RELB			RFRM			RWRA			RWRB			RFIN			LASI			RASI			LPSI			RPSI			LTHI			LKNE			LTIB			LANK			LHEE			LTOE			RTHI			RKNE			RTIB			RANK			RHEE			RTOE			*39			*40			*41			*42			*43			*44			*45			*46		
		X1	Y1	Z1	X2	Y2	Z2	X3	Y3	Z3	X4	Y4	Z4	X5	Y5	Z5	X6	Y6	Z6	X7	Y7	Z7	X8	Y8	Z8	X9	Y9	Z9	X10	Y10	Z10	X11	Y11	Z11	X12	Y12	Z12	X13	Y13	Z13	X14	Y14	Z14	X15	Y15	Z15	X16	Y16	Z16	X17	Y17	Z17	X18	Y18	Z18	X19	Y19	Z19	X20	Y20	Z20	X21	Y21	Z21	X22	Y22	Z22	X23	Y23	Z23	X24	Y24	Z24	X25	Y25	Z25	X26	Y26	Z26	X27	Y27	Z27	X28	Y28	Z28	X29	Y29	Z29	X30	Y30	Z30	X31	Y31	Z31	X32	Y32	Z32	X33	Y33	Z33	X34	Y34	Z34	X35	Y35	Z35	X36	Y36	Z36	X37	Y37	Z37	X38	Y38	Z38	X39	Y39	Z39	X40	Y40	Z40	X41	Y41	Z41	X42	Y42	Z42	X43	Y43	Z43	X44	Y44	Z44	X45	Y45	Z45	X46	Y46	Z46	X47	Y47	Z47
																																																																																																																																														
52	0.51	-719.88818	1609.58337	1387.27368	-723.53418	1611.073	1520.60559	-842.32745	1551.39429	1388.24377	-840.78558	1552.96191	1519.26172	-862.57709	1397.06543	1445.96204	-905.68488	1089.16016	1451.79675	-741.03644	1320.51099	1441.05798	-701.24146	1152.55542	1436.08459	-912.52802	1225.8291	1548.12244	-795.00067	1357.96912	1286.44836	-828.51434	1161.7146	1217.8811	-835.58972	1039.4408	1202.5686	-838.70709	908.6203	1194.32007	-851.11639	787.18842	1215.01221	-872.18982	802.30377	1164.86206	-884.24603	716.5899	1171.21814	-777.79321	1343.12744	1601.11584	-731.71405	1131.7605	1679.06689	-687.34216	1028.36145	1693.24231	-630.80353	903.52094	1695.24634	-577.37909	821.32983	1657.1637	-600.65833	807.78442	1703.42993	-555.96582	749.54205	1691.46716	-749.81287	923.06635	1333.81348	-752.08459	916.24329	1569.14197	-913.44037	940.54413	1376.6991	-911.63574	952.55823	1526.10779	-723.93463	631.5213	1274.30762	-646.00989	477.54108	1317.67761	-631.3064	281.88724	1304.86731	-582.28021	75.27204	1334.63428	-613.24426	30.16657	1370.37732	-431.61682	77.34242	1361.32874	-860.9599	634.96216	1614.43127	-897.36395	457.48206	1584.55347	-1006.77252	296.93698	1597.89429	-1119.22607	106.86141	1562.64246	-1176.6825	89.8528	1519.12708	-996.31519	36.39611	1535.02209	NaN	NaN	NaN	NaN	NaN	NaN	NaN	NaN	NaN	NaN	NaN	NaN	NaN	NaN	NaN	NaN	NaN	NaN	NaN	NaN	NaN	NaN	NaN	NaN
53	0.52	-708.18512	1609.60291	1386.03894	-712.30554	1610.60876	1519.39722	-830.75635	1551.39258	1386.51624	-829.4812	1552.47729	1517.55103	-850.51392	1396.29639	1443.07141	-892.61145	1088.28528	1450.99731	-729.32367	1320.41638	1439.12256	-688.62067	1152.69531	1434.70496	-900.7641	1225.07434	1545.72314	-782.38202	1357.46436	1284.27124	-816.89026	1161.24976	1215.79321	-825.91241	1039.26392	1200.40527	-830.49445	908.25336	1192.44348	-845.19977	787.29999	1213.83972	-864.43604	801.91089	1163.31018	-882.06403	716.54822	1171.24854	-767.03003	1343.41028	1599.28894	-721.3006	1132.10876	1677.67603	-676.66821	1028.8291	1692.0929	-619.81903	904.17261	1694.33423	-565.82916	822.1897	1656.50891	-589.37921	808.51947	1702.53955	-544.28967	750.63562	1690.78784	-735.55878	923.29755	1332.9491	-738.3468	915.52448	1568.39478	-899.68097	940.59613	1376.10925	-897.82715	952.32428	1525.47351	-708.93048	632.21771	1274.74084	-634.12653	476.97903	1316.98804	-622.23016	280.18491	1304.23987	-576.02417	73.02913	1334.24866	-609.16077	30.77479	1368.79248	-425.50659	71.81483	1361.71606	-848.12427	634.51599	1613.78699	-885.07391	457.07132	1584.57227	-998.27527	298.61914	1597.9386	-1115.78918	111.86567	1563.07935	-1173.58777	96.79146	1519.49854	-995.66559	36.44785	1535.41309	-797.79834	1659.3623	1436.7002	NaN	NaN	NaN	NaN	NaN	NaN	NaN	NaN	NaN	NaN	NaN	NaN	NaN	NaN	NaN	NaN	NaN	NaN	NaN	NaN	NaN
54	0.53	-696.53436	1609.87146	1384.75	-700.95093	1610.40747	1518.21985	-818.99158	1551.59705	1384.72229	-818.19678	1552.2207	1515.83691	-839.03192	1395.94714	1440.28809	-879.17877	1087.51843	1449.83325	-717.15167	1320.74866	1437.3728	-675.59656	1153.224	1433.48059	-888.84589	1224.48853	1543.04346	-769.74298	1357.16187	1282.11731	-805.07001	1161.18201	1213.31726	-815.12732	1039.22937	1197.92639	-821.46979	908.13434	1190.77954	-839.20593	787.17169	1214.60852	-855.67603	802.02124	1161.17456	-877.68451	716.72479	1171.2821	-756.39899	1344.01868	1597.39771	-711.12207	1132.65466	1676.26733	-666.44165	1029.49915	1690.85718	-609.31427	904.92126	1693.37488	-554.78827	823.21832	1655.78772	-578.59662	809.35004	1701.63635	-533.09119	751.65802	1689.96509	-721.73181	923.44958	1332.13525	-724.05597	915.02942	1567.5166	-885.72351	940.92365	1375.26025	-883.81342	952.2746	1524.77393	-694.09454	632.99316	1274.93335	-622.74164	476.3045	1316.13147	-614.54419	278.53275	1304.54211	-572.20245	71.21587	1334.53503	-608.13666	32.12985	1370.14673	-421.48969	59.04037	1361.04236	-834.54865	634.00378	1613.0708	-871.83081	456.51929	1584.47351	-988.99567	300.42831	1597.91895	-1111.60925	117.2654	1563.4165	-1169.71948	104.45109	1519.79663	-995.0575	36.23892	1535.57629	-786.22272	1658.88489	1434.97656	NaN	NaN	NaN	NaN	NaN	NaN	NaN	NaN	NaN	NaN	NaN	NaN	NaN	NaN	NaN	NaN	NaN	NaN	NaN	NaN	NaN
55	0.54	-684.703	1610.65137	1383.53455	-689.59613	1610.68274	1517.07422	-807.2207	1552.29712	1382.94788	-806.72272	1552.39624	1513.9751	-827.48035	1395.92505	1437.37573	-865.7337	1087.25818	1448.59729	-705.19611	1321.4967	1435.35132	-662.75354	1154.11572	1432.16321	-876.90112	1224.31775	1540.13306	-756.9765	1357.2052	1279.87537	-793.40613	1161.39795	1210.7196	-804.48462	1039.34509	1195.22595	-811.35852	908.22577	1188.7417	-830.67084	787.55353	1212.1377	-845.90472	801.97144	1159.17932	-873.05176	716.85797	1172.02356	-746.05304	1345.03772	1595.34595	-701.08807	1133.38525	1674.84204	-656.80719	1030.13367	1689.5769	-599.3595	905.71509	1692.39111	-544.19519	824.38776	1655.03992	-568.51355	810.14075	1700.61316	-522.51312	752.72119	1689.24902	-707.74451	924.12555	1331.29993	-709.59747	914.83289	1566.44226	-871.51086	941.70038	1374.2522	-869.15619	952.13995	1524.1355	-680.07806	634.09137	1274.98108	-611.20898	476.06311	1315.01807	-607.34985	277.69839	1305.27136	-570.25421	70.17297	1334.00317	-607.68054	33.16828	1370.48169	-420.09653	48.15073	1362.17712	-820.17529	633.42603	1612.1748	-857.43994	455.79227	1584.11804	-978.79425	302.5563	1597.72546	-1106.60986	123.6143	1563.97668	-1164.83069	112.9192	1520.03833	-993.80609	36.58298	1535.70557	-774.73669	1659.43433	1433.7334	NaN	NaN	NaN	NaN	NaN	NaN	NaN	NaN	NaN	NaN	NaN	NaN	NaN	NaN	NaN	NaN	NaN	NaN	NaN	NaN	NaN
56	0.55	-672.80267	1611.85132	1382.30566	-678.13031	1611.3457	1515.82458	-795.27563	1553.54956	1381.12134	-795.39307	1553.19983	1512.32214	-815.79004	1396.50549	1434.49634	-852.1723	1087.43604	1447.3457	-693.20264	1322.59448	1433.3772	-649.76361	1155.44958	1430.83936	-864.75861	1224.3468	1537.30139	-744.16382	1357.62671	1277.62622	-781.29065	1162.12939	1208.02954	-792.54041	1039.79773	1192.78357	-800.02185	908.72803	1186.74719	-821.03278	788.38934	1210.42932	-835.3114	802.39514	1157.12585	-864.53467	718.07391	1170.74768	-735.1142	1346.32483	1593.45044	-691.38177	1134.43848	1673.35583	-647.48541	1030.96082	1688.37683	-589.90399	906.617	1691.39465	-534.42456	825.47473	1654.37061	-559.10992	811.09259	1699.58789	-512.77026	753.91644	1688.43652	-692.72888	925.25452	1330.00476	-694.99329	914.95306	1565.24829	-857.14502	943.00604	1373.32324	-854.77057	952.63434	1523.55029	-667.0047	635.73541	1274.47839	-599.65247	476.55121	1313.45862	-600.23407	277.88501	1304.16296	-566.92194	69.83947	1333.54761	-606.19635	34.32781	1369.3667	-417.03302	43.80604	1364.07324	-804.90564	632.83344	1611.1792	-841.54639	455.06473	1583.6936	-967.3537	304.95251	1597.33801	-1100.51123	130.48824	1564.03503	-1158.55273	122.3179	1519.69482	-992.9975	36.4908	1535.75952	-762.76202	1660.44543	1432.15356	NaN	NaN	NaN	NaN	NaN	NaN	NaN	NaN	NaN	NaN	NaN	NaN	NaN	NaN	NaN	NaN	NaN	NaN	NaN	NaN	NaN
57	0.56	-660.85645	1613.32532	1381.08789	-666.5481	1612.3053	1514.6178	-783.26001	1555.18799	1379.26318	-783.87189	1554.3252	1510.48389	-803.72076	1397.66479	1431.70276	-838.69391	1088.15564	1446.06396	-681.16553	1324.0968	1431.44861	-636.74884	1157.24121	1429.48352	-852.44171	1224.78174	1534.51025	-731.39319	1358.55225	1275.39978	-768.44019	1163.03699	1205.57959	-780.26788	1041.03394	1190.46851	-788.32501	909.52191	1184.75183	-810.0968	789.68585	1209.62402	-823.51892	803.28619	1154.94604	-855.35986	719.35638	1169.4436	-724.01074	1348.03455	1591.49561	-681.80652	1135.74829	1671.90198	-638.49573	1032.0509	1687.22925	-581.01868	907.69312	1690.40588	-524.99933	826.77399	1653.66895	-550.33557	812.20105	1698.59375	-503.65778	755.04303	1687.56287	-678.70294	926.5376	1329.14758	-680.55023	915.49677	1563.9917	-843.94812	945.38037	1372.53271	-840.50116	953.5791	1523.104	-655.38641	637.37982	1273.12097	-588.43866	477.65671	1312.48804	-592.70154	278.57639	1303.51733	-563.75037	70.01349	1333.5498	-604.10028	35.94372	1369.24976	-413.90524	42.05651	1362.48206	-788.77148	632.2619	1610.0564	-824.03046	454.21786	1583.29358	-954.80023	307.76639	1596.54065	-1092.99426	137.8942	1563.43872	-1150.53333	132.59373	1518.37915	-991.89728	36.32261	1535.44336	NaN	NaN	NaN	NaN	NaN	NaN	NaN	NaN	NaN	NaN	NaN	NaN	NaN	NaN	NaN	NaN	NaN	NaN	NaN	NaN	NaN	NaN	NaN	NaN
58	0.57	-648.65131	1615.01611	1380.54871	-654.95856	1613.54346	1513.43005	-771.14758	1557.1864	1377.39075	-772.33472	1555.71509	1508.56531	-791.76422	1398.93506	1429.08081	-825.54907	1089.31213	1444.76587	-669.24561	1326.05359	1429.5271	-623.89362	1159.22437	1427.98242	-840.14752	1225.8009	1532.04919	-718.68024	1359.95581	1273.31799	-754.90509	1164.39343	1203.35254	-766.99121	1042.34998	1188.58044	-775.388	910.88629	1182.83911	-797.04626	790.85724	1206.25293	-810.76801	804.68188	1152.66504	-843.55731	720.83191	1167.18372	-712.82837	1350.12537	1589.44397	-672.03302	1137.40259	1670.46985	-629.66052	1033.45129	1686.14954	-572.66919	908.92334	1689.36841	-516.38861	828.20056	1652.99036	-542.33289	813.33624	1697.48645	-495.33084	756.59729	1686.9884	-664.94775	928.1474	1328.36499	-665.87469	916.57147	1562.21423	-829.91486	947.72699	1372.05762	-825.16492	954.18219	1522.94995	-644.64111	639.10132	1271.44189	-577.09521	479.04007	1311.5365	-585.0108	279.55554	1302.23047	-562.96576	70.32965	1334.10303	-603.37079	36.12848	1369.38538	-412.42514	40.81496	1360.5769	-771.89032	631.73938	1609.06506	-804.89868	453.30124	1582.97156	-940.52002	310.79547	1595.57214	-1083.9342	146.06369	1562.11536	-1140.40039	143.89572	1515.99146	-990.64642	36.02431	1534.60852	NaN	NaN	NaN	NaN	NaN	NaN	NaN	NaN	NaN	NaN	NaN	NaN	NaN	NaN	NaN	NaN	NaN	NaN	NaN	NaN	NaN	NaN	NaN	NaN
